<?xml version="1.0" encoding="UTF-8"?> <svg xmlns="http://www.w3.org/2000/svg" viewBox="12 14 424 98" width="424" height="98"><path d="M189.02 90.56a71.5 71.5 0 01-3.82-.31v-2.52c2.77.28 5.09.41 6.94.41 1.15 0 2.06-.04 2.73-.14s1.25-.27 1.71-.52c.43-.26.7-.64.84-1.14.12-.5.19-1.16.19-1.98 0-1-.06-1.7-.16-2.12-.11-.41-.36-.72-.75-.9a6.45 6.45 0 00-2.03-.42l-5.44-.6a6.42 6.42 0 01-2.99-.94 3.4 3.4 0 01-1.34-1.88c-.22-.77-.33-1.79-.33-3.04 0-1.74.3-3.06.9-3.95.61-.89 1.47-1.48 2.56-1.78 1.1-.3 2.58-.45 4.43-.45a45.65 45.65 0 016.81.55v2.42a53.98 53.98 0 00-6.33-.41c-1.2 0-2.15.04-2.88.15a4.4 4.4 0 00-1.69.54c-.45.26-.73.6-.86 1.02-.13.43-.2 1.03-.2 1.81 0 .88.07 1.5.2 1.9s.37.68.73.86c.36.18.96.31 1.8.4l5.36.6c1.28.13 2.27.35 2.98.67s1.21.9 1.53 1.72c.3.76.45 1.98.45 3.66 0 1.93-.3 3.37-.9 4.31-.6.95-1.4 1.55-2.4 1.81-1 .27-2.37.4-4.12.4-1.17 0-2.48-.04-3.92-.13zM233.6 90.44V73.22h-.13l-7.54 17.22h-2.01l-7.52-17.22h-.12v17.22h-2.6v-21.9h3.71l7.52 17.03h.16l7.5-17.03h3.72v21.9h-2.69zM265.57 90.44l-2.27-5.83h-9.91l-2.27 5.83h-2.78l8.3-21.9h3.46l8.31 21.9h-2.84zM258.4 71.5h-.16l-4.03 10.53h8.22L258.4 71.5zM294.11 90.44l-3.42-8.6h-7.44v8.6h-2.75v-21.9h10.1c1.75 0 3.07.27 3.96.82.9.56 1.48 1.3 1.76 2.23.28.94.42 2.13.42 3.6 0 1.5-.23 2.82-.67 3.93-.45 1.11-1.37 1.88-2.75 2.28l3.74 9.04h-2.95zm-1.64-11.58a2.1 2.1 0 001.24-1.25c.19-.55.28-1.36.28-2.42 0-1.08-.09-1.9-.26-2.45s-.56-.97-1.17-1.24a7.47 7.47 0 00-2.89-.42h-6.43v8.21h6.2c1.37 0 2.38-.14 3.03-.43zM314.39 90.44V71.18h-6.97v-2.64h16.65v2.64h-6.93v19.26h-2.75zM336.25 90.44v-21.9H339v19.25h10.26v2.65h-13zM374.63 90.44l-2.27-5.83h-9.91l-2.27 5.83h-2.78l8.31-21.9h3.45l8.31 21.9h-2.84zm-7.16-18.94h-.16l-4.03 10.53h8.22l-4.03-10.53zM402.94 90.44l-11.6-16.75h-.13v16.75h-2.65v-21.9h2.81l11.45 16.36h.12V68.54h2.63v21.9h-2.63zM419.92 90.44v-21.9h14.32v2.54h-11.58v7.04h10.04v2.54h-10.04v7.23h11.58v2.55h-14.32z" fill="#010101"></path><path d="M89.61 90l-9.6-7.03-.1-.05c-.18-.09-.46-.2-.7-.16-.06.01-.1 0-.15-.01H14.57c-.5.06-.42.35-.33.52l9.7 7.13c.24.18.69.18.85.18l64.49-.04c.5-.07.42-.37.33-.53zM167.97 42.27l-9.6-7.04-.1-.05c-.19-.1-.46-.2-.7-.16l-.16-.01H92.93c-.51.06-.43.35-.34.52l9.71 7.13c.23.18.68.18.85.18l64.48-.04c.51-.07.43-.37.34-.53z" fill="#DE6339"></path><path d="M142.21 23.47l-9.58-7h-.02c-.3-.22-.7-.27-.89-.28l-64.48.01a9.85 9.85 0 00-6.33 17.37l62.7 46.02c.41.26.53-.07.56-.22v-8.53c-.03-.18-.12-.55-.4-.75h-.02L65.82 27.57a2.1 2.1 0 011.42-3.63l74.66.04c.52 0 .5-.38.31-.52zM121.16 91.89L58.49 45.88c-.38-.28-.53-.07-.6.1v9.08l.34.24 58.02 42.58a2.08 2.08 0 01-1.41 3.62l-74.75-.02c-.57-.01-.5.36-.3.52l9.6 7c.28.2.63.26.83.27l64.61-.02a9.84 9.84 0 006.33-17.36z" fill="#DE6339"></path></svg> 